<svg id="kity_svg_6" xmlns="http://www.w3.org/2000/svg" xmlns:xlink="http://www.w3.org/1999/xlink" version="1.1" width="1108" height="914" style="background: rgb(251, 251, 251); display: inline;" viewBox="0 0 1108 914"><defs id="kity_defs_7"><linearGradient id="kity_linearGradient_17" x1="0" y1="0" x2="0" y2="1"><stop id="kity_stop_18" offset="0" stop-color="rgb(255, 255, 255)"></stop><stop id="kity_stop_19" offset="1" stop-color="rgb(204, 204, 204)"></stop></linearGradient><marker id="kity_marker_4" orient="auto" refX="6" refY="0" viewBox="-7 -7 14 14" markerWidth="7" markerHeight="7" markerUnits="userSpaceOnUse"><path id="kity_path_5" fill="rgb(115, 161, 191)" stroke="none" d="M6,0A6,6,0,1,1,-6,0A6,6,0,1,1,6,0"></path></marker><marker id="kity_marker_2" orient="auto" refX="6" refY="0" viewBox="-7 -7 14 14" markerWidth="7" markerHeight="7" markerUnits="userSpaceOnUse"><path id="kity_path_3" fill="rgb(115, 161, 191)" stroke="none" d="M6,0A6,6,0,1,1,-6,0A6,6,0,1,1,6,0"></path></marker></defs><g id="kity_g_8"><g id="minder1" text-rendering="optimize-speed"><g id="minder_connect_group1"><path id="kity_path_31" fill="none" stroke="rgb(115, 161, 191)" stroke-width="1" d="M69,578.5A166.5,253,0,0,1,235.5,325.5"></path><path id="kity_path_39" fill="none" stroke="rgb(115, 161, 191)" stroke-width="1" d="M514.5,325.5C534.5,325.5,534.5,191.5,554.5,191.5"></path><path id="kity_path_47" fill="none" stroke="rgb(115, 161, 191)" stroke-width="1" d="M583.5,191.5C603.5,191.5,603.5,31.5,623.5,31.5"></path><path id="kity_path_55" fill="none" stroke="rgb(115, 161, 191)" stroke-width="1" d="M583.5,191.5C603.5,191.5,603.5,83.5,623.5,83.5"></path><path id="kity_path_63" fill="none" stroke="rgb(115, 161, 191)" stroke-width="1" d="M583.5,191.5C603.5,191.5,603.5,135.5,623.5,135.5"></path><path id="kity_path_71" fill="none" stroke="rgb(115, 161, 191)" stroke-width="1" d="M583.5,191.5C603.5,191.5,603.5,239.5,623.5,239.5"></path><path id="kity_path_79" fill="none" stroke="rgb(115, 161, 191)" stroke-width="1" d="M583.5,191.5C603.5,191.5,603.5,347.5,623.5,347.5"></path><path id="kity_path_87" fill="none" stroke="rgb(115, 161, 191)" stroke-width="1" d="M583.5,191.5C603.5,191.5,603.5,291.5,623.5,291.5"></path><path id="kity_path_103" fill="none" stroke="rgb(115, 161, 191)" stroke-width="1" d="M514.5,325.5C534.5,325.5,534.5,459.5,554.5,459.5"></path><path id="kity_path_119" fill="none" stroke="rgb(115, 161, 191)" stroke-width="1" d="M586.5,459.5C606.5,459.5,606.5,403.5,626.5,403.5"></path><path id="kity_path_127" fill="none" stroke="rgb(115, 161, 191)" stroke-width="1" d="M586.5,459.5C606.5,459.5,606.5,455.5,626.5,455.5"></path><path id="kity_path_175" fill="none" stroke="rgb(115, 161, 191)" stroke-width="1" d="M586.5,459.5C606.5,459.5,606.5,511.5,626.5,511.5"></path><path id="kity_path_245" fill="none" stroke="rgb(115, 161, 191)" stroke-width="1" d="M583.5,191.5C603.5,191.5,603.5,187.5,623.5,187.5"></path><path id="kity_path_261" fill="none" stroke="rgb(115, 161, 191)" stroke-width="1" d="M69,578.5A166.5,69,0,0,0,235.5,647.5"></path><path id="kity_path_292" fill="none" stroke="rgb(115, 161, 191)" stroke-width="1" d="M532.5,647.5C552.5,647.5,552.5,577.5,572.5,577.5"></path><path id="kity_path_300" fill="none" stroke="rgb(115, 161, 191)" stroke-width="1" d="M620.5,577.5C640.5,577.5,640.5,577.5,660.5,577.5"></path><path id="kity_path_308" fill="none" stroke="rgb(115, 161, 191)" stroke-width="1" d="M532.5,647.5C552.5,647.5,552.5,629.5,572.5,629.5"></path><path id="kity_path_316" fill="none" stroke="rgb(115, 161, 191)" stroke-width="1" d="M604.5,629.5C624.5,629.5,624.5,629.5,644.5,629.5"></path><path id="kity_path_332" fill="none" stroke="rgb(115, 161, 191)" stroke-width="1" d="M532.5,647.5C552.5,647.5,552.5,699.5,572.5,699.5"></path><path id="kity_path_344" fill="none" stroke="rgb(115, 161, 191)" stroke-width="1" d="M69,578.5A166.5,253,0,0,0,235.5,831.5"></path><path id="kity_path_352" fill="none" stroke="rgb(115, 161, 191)" stroke-width="1" d="M524.5,831.5C544.5,831.5,544.5,779.5,564.5,779.5"></path><path id="kity_path_360" fill="none" stroke="rgb(115, 161, 191)" stroke-width="1" d="M524.5,831.5C544.5,831.5,544.5,831.5,564.5,831.5"></path><path id="kity_path_368" fill="none" stroke="rgb(115, 161, 191)" stroke-width="1" d="M524.5,831.5C544.5,831.5,544.5,883.5,564.5,883.5"></path></g><g id="minder_node1"><path id="kity_path_270" fill="rgba(0, 0, 0, .25)" stroke="none" d="M60.5,536.5h50a47,47,0,0,1,47,47v0a47,47,0,0,1,-47,47h-50a47,47,0,0,1,-47,-47v0a47,47,0,0,1,47,-47z" display="none"></path><path id="node_outline1" fill="rgb(115, 161, 191)" stroke="rgb(115, 161, 191)" d="M25.5,558.5h87a5,5,0,0,1,5,5v30a5,5,0,0,1,-5,5h-87a5,5,0,0,1,-5,-5v-30a5,5,0,0,1,5,-5z" stroke-width="3"></path><g id="node_text1" fill="white"><text id="kity_text_22" text-rendering="inherit" font-size="16" dy=".8em" y="570.5" x="44.5">iframe</text></g></g><g id="kity_g_12"><path id="kity_path_13" fill="none" stroke="none" d="M44.5,578.5h0v0h0z"></path></g><g id="kity_g_14"><path id="kity_path_15" fill="none" stroke="none" d="M44.5,578.5h0v0h0z"></path><path id="kity_path_16" fill="none" stroke="none"></path></g><g id="minder_node2"><path id="kity_path_268" fill="rgba(0, 0, 0, .25)" stroke="none" d="M246.5,316.5h300a5,5,0,0,1,5,5v18a5,5,0,0,1,-5,5h-300a5,5,0,0,1,-5,-5v-18a5,5,0,0,1,5,-5z" display="none"></path><g id="node_expander1" style="cursor: pointer;"><path id="kity_path_36" fill="white" stroke="gray" d="M236.5,325.5A6,6,0,1,1,224.5,325.5A6,6,0,1,1,236.5,325.5"></path><path id="kity_path_37" fill="none" stroke="gray" d="M226,325.5L235,325.5"></path></g><path id="node_outline2" fill="rgb(238, 243, 246)" stroke="rgb(115, 161, 191)" d="M240.5,312.5h271a3,3,0,0,1,3,3v20a3,3,0,0,1,-3,3h-271a3,3,0,0,1,-3,-3v-20a3,3,0,0,1,3,-3z" stroke-width="1"></path><g id="node_text2" fill="black"><text id="kity_text_33" text-rendering="inherit" font-size="14" dy=".8em" y="318.5" x="257.5">父页面中获取 iframe 的 window 对象</text></g></g><g id="minder_node3"><path id="kity_path_278" fill="rgba(0, 0, 0, .25)" stroke="none" d="M573.5,182h0a15,15,0,0,1,15,15v0a15,15,0,0,1,-15,15h0a15,15,0,0,1,-15,-15v0a15,15,0,0,1,15,-15z" display="none"></path><g id="node_expander2" style="cursor: pointer;"><path id="kity_path_44" fill="white" stroke="gray" d="M554.5,191.5A6,6,0,1,1,542.5,191.5A6,6,0,1,1,554.5,191.5"></path><path id="kity_path_45" fill="none" stroke="gray" d="M544,191.5L553,191.5"></path></g><path id="node_outline3" fill="none" stroke="none" d="M559.5,180.5h19a5,5,0,0,1,5,5v12a5,5,0,0,1,-5,5h-19a5,5,0,0,1,-5,-5v-12a5,5,0,0,1,5,-5z" stroke-width="3"></path><g id="node_text3" fill="black"><text id="kity_text_41" text-rendering="inherit" font-size="12" dy=".8em" y="185.5" x="564.5">IE</text></g></g><g id="minder_node4"><path id="kity_path_271" fill="rgba(0, 0, 0, .25)" stroke="none" d="M663.5,4h0a33,33,0,0,1,33,33v0a33,33,0,0,1,-33,33h0a33,33,0,0,1,-33,-33v0a33,33,0,0,1,33,-33z" display="none"></path><g id="node_expander3" style="cursor: pointer;" display="none"><path id="kity_path_52" fill="white" stroke="gray" d="M623.5,31.5A6,6,0,1,1,611.5,31.5A6,6,0,1,1,623.5,31.5"></path><path id="kity_path_53" fill="none" stroke="gray"></path></g><path id="node_outline4" fill="none" stroke="none" d="M628.5,20.5h58a5,5,0,0,1,5,5v12a5,5,0,0,1,-5,5h-58a5,5,0,0,1,-5,-5v-12a5,5,0,0,1,5,-5z" stroke-width="3"></path><g id="node_text4" fill="black"><text id="kity_text_49" text-rendering="inherit" font-size="12" dy=".8em" y="25.5" x="633.5">iframeId</text></g></g><g id="minder_node5"><path id="kity_path_272" fill="rgba(0, 0, 0, .25)" stroke="none" d="M690,30h0a59,59,0,0,1,59,59v0a59,59,0,0,1,-59,59h0a59,59,0,0,1,-59,-59v0a59,59,0,0,1,59,-59z" display="none"></path><g id="node_expander4" style="cursor: pointer;" display="none"><path id="kity_path_60" fill="white" stroke="gray" d="M623.5,83.5A6,6,0,1,1,611.5,83.5A6,6,0,1,1,623.5,83.5"></path><path id="kity_path_61" fill="none" stroke="gray"></path></g><path id="node_outline5" fill="none" stroke="none" d="M628.5,72.5h107a5,5,0,0,1,5,5v12a5,5,0,0,1,-5,5h-107a5,5,0,0,1,-5,-5v-12a5,5,0,0,1,5,-5z" stroke-width="3"></path><g id="node_text5" fill="black"><text id="kity_text_57" text-rendering="inherit" font-size="12" dy=".8em" y="77.5" x="633.5">window.iframeId</text></g></g><g id="minder_node6"><path id="kity_path_273" fill="rgba(0, 0, 0, .25)" stroke="none" d="M703.5,69h0a72,72,0,0,1,72,72v0a72,72,0,0,1,-72,72h0a72,72,0,0,1,-72,-72v0a72,72,0,0,1,72,-72z" display="none"></path><g id="node_expander5" style="cursor: pointer;" display="none"><path id="kity_path_68" fill="white" stroke="gray" d="M623.5,135.5A6,6,0,1,1,611.5,135.5A6,6,0,1,1,623.5,135.5"></path><path id="kity_path_69" fill="none" stroke="gray"></path></g><path id="node_outline6" fill="none" stroke="none" d="M628.5,124.5h132a5,5,0,0,1,5,5v12a5,5,0,0,1,-5,5h-132a5,5,0,0,1,-5,-5v-12a5,5,0,0,1,5,-5z" stroke-width="3"></path><g id="node_text6" fill="black"><text id="kity_text_65" text-rendering="inherit" font-size="12" dy=".8em" y="129.5" x="633.5">window.iframeName</text></g><g id="kity_g_236" display="none"><g id="kity_g_237"><path id="kity_path_238" fill="rgb(236, 255, 179)" stroke="none" d="M760.5,124.5h28v20h-28z"></path><text id="kity_text_239" text-rendering="geometricPrecision" font-size="12" dy="4" x="768.5" fill="rgb(57, 77, 0)" y="134.5">✔️</text></g></g></g><g id="minder_node7"><path id="kity_path_275" fill="rgba(0, 0, 0, .25)" stroke="none" d="M729.5,147h0a98,98,0,0,1,98,98v0a98,98,0,0,1,-98,98h0a98,98,0,0,1,-98,-98v0a98,98,0,0,1,98,-98z" display="none"></path><g id="node_expander6" style="cursor: pointer;" display="none"><path id="kity_path_76" fill="white" stroke="gray" d="M623.5,239.5A6,6,0,1,1,611.5,239.5A6,6,0,1,1,623.5,239.5"></path><path id="kity_path_77" fill="none" stroke="gray"></path></g><path id="node_outline7" fill="none" stroke="none" d="M628.5,228.5h180a5,5,0,0,1,5,5v12a5,5,0,0,1,-5,5h-180a5,5,0,0,1,-5,-5v-12a5,5,0,0,1,5,-5z" stroke-width="3"></path><g id="node_text7" fill="black"><text id="kity_text_73" text-rendering="inherit" font-size="12" dy=".8em" y="233.5" x="633.5">window.frames[iframeName]</text></g><g id="kity_g_256" display="none"><g id="kity_g_257"><path id="kity_path_258" fill="rgb(236, 255, 179)" stroke="none" d="M808.5,228.5h28v20h-28z"></path><text id="kity_text_259" text-rendering="geometricPrecision" font-size="12" dy="4" x="816.5" fill="rgb(57, 77, 0)" y="238.5">✔️</text></g></g></g><g id="minder_node8"><path id="kity_path_277" fill="rgba(0, 0, 0, .25)" stroke="none" d="M752,232.5h0a120,120,0,0,1,120,120v0a120,120,0,0,1,-120,120h0a120,120,0,0,1,-120,-120v0a120,120,0,0,1,120,-120z" display="none"></path><g id="node_expander7" style="cursor: pointer;" display="none"><path id="kity_path_84" fill="white" stroke="gray" d="M623.5,347.5A6,6,0,1,1,611.5,347.5A6,6,0,1,1,623.5,347.5"></path><path id="kity_path_85" fill="none" stroke="gray"></path></g><path id="node_outline8" fill="none" stroke="none" d="M628.5,332.5h224a5,5,0,0,1,5,5v20a5,5,0,0,1,-5,5h-224a5,5,0,0,1,-5,-5v-20a5,5,0,0,1,5,-5z" stroke-width="3"></path><g id="node_text8" fill="black"><text id="kity_text_81" text-rendering="inherit" font-size="12" dy=".8em" y="341.5" x="633.5">iframeElement.contentWindow</text></g><g id="kity_g_252"><g id="kity_g_253"><path id="kity_path_254" fill="rgb(236, 255, 179)" stroke="none" d="M819.5,336.5h28v20h-28z"></path><text id="kity_text_255" text-rendering="geometricPrecision" font-size="12" dy="4" x="827.5" fill="rgb(57, 77, 0)" y="346.5">✔️</text></g></g></g><g id="minder_node9"><path id="kity_path_276" fill="rgba(0, 0, 0, .25)" stroke="none" d="M727,202h0a95,95,0,0,1,95,95v0a95,95,0,0,1,-95,95h0a95,95,0,0,1,-95,-95v0a95,95,0,0,1,95,-95z" display="none"></path><g id="node_expander8" style="cursor: pointer;" display="none"><path id="kity_path_92" fill="white" stroke="gray" d="M623.5,291.5A6,6,0,1,1,611.5,291.5A6,6,0,1,1,623.5,291.5"></path><path id="kity_path_93" fill="none" stroke="gray"></path></g><path id="node_outline9" fill="none" stroke="none" d="M628.5,280.5h176a5,5,0,0,1,5,5v12a5,5,0,0,1,-5,5h-176a5,5,0,0,1,-5,-5v-12a5,5,0,0,1,5,-5z" stroke-width="3"></path><g id="node_text9" fill="black"><text id="kity_text_89" text-rendering="inherit" font-size="12" dy=".8em" y="285.5" x="633.5">window.frames[iframeIndex]</text></g><g id="node_progress4" display="none"><path id="kity_path_223" fill="#FFED83" stroke="none" d="M628,292A9,9,0,1,1,610,292A9,9,0,1,1,628,292"></path><path id="kity_path_224" fill="#43BC00" stroke="none" d="M619,292L628,292A9,9,0,0,0,627.3149157926016,288.5558491087142A9,9,0,0,0,625.363961030679,285.6360389693211L619,292z"></path><path id="kity_path_225" fill="#8E8E8E" stroke="none" d="M619,285c4.418,0,8,3.582,8,8h1c0,-5.523,-3.477,-10,-9,-10S610,287.477,610,293h1C611,288.582,614.582,285,619,285z"></path><path id="kity_path_227" fill="#EEE" stroke="none" d="M624.812,289.896l-6.75,6.75l-4.5,-4.5L615.25,290.459l2.812,2.803l5.062,-5.053L624.812,289.896z" display="none"></path><path id="kity_path_226" fill="url(#kity_linearGradient_17)" stroke="none" d="M619,282C613.477,282,609,286.477,609,292c0,5.523,4.477,10,10,10s10,-4.477,10,-10C629,286.477,624.523,282,619,282zM619,300c-4.418,0,-8,-3.582,-8,-8s3.582,-8,8,-8s8,3.582,8,8S623.418,300,619,300z"></path></g><g id="kity_g_228" display="none"><g id="kity_g_229"><path id="kity_path_230" fill="rgb(236, 255, 179)" stroke="none" d="M808.5,280.5h28v20h-28z"></path><text id="kity_text_231" text-rendering="geometricPrecision" font-size="12" dy="4" x="816.5" fill="rgb(57, 77, 0)" y="290.5">✔️</text></g></g></g><g id="minder_node11"><path id="kity_path_282" fill="rgba(0, 0, 0, .25)" stroke="none" d="M575,449h0a16,16,0,0,1,16,16v0a16,16,0,0,1,-16,16h0a16,16,0,0,1,-16,-16v0a16,16,0,0,1,16,-16z" display="none"></path><g id="node_expander10" style="cursor: pointer;"><path id="kity_path_108" fill="white" stroke="gray" d="M554.5,459.5A6,6,0,1,1,542.5,459.5A6,6,0,1,1,554.5,459.5"></path><path id="kity_path_109" fill="none" stroke="gray" d="M544,459.5L553,459.5"></path></g><path id="node_outline11" fill="none" stroke="none" d="M559.5,448.5h22a5,5,0,0,1,5,5v12a5,5,0,0,1,-5,5h-22a5,5,0,0,1,-5,-5v-12a5,5,0,0,1,5,-5z" stroke-width="3"></path><g id="node_text11" fill="black"><text id="kity_text_105" text-rendering="inherit" font-size="12" dy=".8em" y="453.5" x="564.5">FF</text></g></g><g id="minder_node13"><path id="kity_path_279" fill="rgba(0, 0, 0, .25)" stroke="none" d="M706.5,337h0a72,72,0,0,1,72,72v0a72,72,0,0,1,-72,72h0a72,72,0,0,1,-72,-72v0a72,72,0,0,1,72,-72z" display="none"></path><g id="node_expander12" style="cursor: pointer;" display="none"><path id="kity_path_124" fill="white" stroke="gray" d="M626.5,403.5A6,6,0,1,1,614.5,403.5A6,6,0,1,1,626.5,403.5"></path><path id="kity_path_125" fill="none" stroke="gray"></path></g><path id="node_outline13" fill="none" stroke="none" d="M631.5,392.5h132a5,5,0,0,1,5,5v12a5,5,0,0,1,-5,5h-132a5,5,0,0,1,-5,-5v-12a5,5,0,0,1,5,-5z" stroke-width="3"></path><g id="node_text13" fill="black"><text id="kity_text_121" text-rendering="inherit" font-size="12" dy=".8em" y="397.5" x="636.5">window.iframeName</text></g><g id="kity_g_240" display="none"><g id="kity_g_241"><path id="kity_path_242" fill="rgb(236, 255, 179)" stroke="none" d="M763.5,392.5h28v20h-28z"></path><text id="kity_text_243" text-rendering="geometricPrecision" font-size="12" dy="4" x="771.5" fill="rgb(57, 77, 0)" y="402.5">✔️</text></g></g></g><g id="minder_node14"><path id="kity_path_280" fill="rgba(0, 0, 0, .25)" stroke="none" d="M732.5,363h0a98,98,0,0,1,98,98v0a98,98,0,0,1,-98,98h0a98,98,0,0,1,-98,-98v0a98,98,0,0,1,98,-98z" display="none"></path><g id="node_expander13" style="cursor: pointer;" display="none"><path id="kity_path_132" fill="white" stroke="gray" d="M626.5,455.5A6,6,0,1,1,614.5,455.5A6,6,0,1,1,626.5,455.5"></path><path id="kity_path_133" fill="none" stroke="gray"></path></g><path id="node_outline14" fill="none" stroke="none" d="M631.5,444.5h180a5,5,0,0,1,5,5v12a5,5,0,0,1,-5,5h-180a5,5,0,0,1,-5,-5v-12a5,5,0,0,1,5,-5z" stroke-width="3"></path><g id="node_text14" fill="black"><text id="kity_text_129" text-rendering="inherit" font-size="12" dy=".8em" y="449.5" x="636.5">window.frames[iframeName]</text></g><g id="node_progress3" display="none"><path id="kity_path_217" fill="#FFED83" stroke="none" d="M631,456A9,9,0,1,1,613,456A9,9,0,1,1,631,456"></path><path id="kity_path_218" fill="#43BC00" stroke="none" d="M622,456L631,456A9,9,0,0,0,630.3149157926016,452.5558491087142A9,9,0,0,0,628.363961030679,449.6360389693211L622,456z"></path><path id="kity_path_219" fill="#8E8E8E" stroke="none" d="M622,449c4.418,0,8,3.582,8,8h1c0,-5.523,-3.477,-10,-9,-10S613,451.477,613,457h1C614,452.582,617.582,449,622,449z"></path><path id="kity_path_221" fill="#EEE" stroke="none" d="M627.812,453.896l-6.75,6.75l-4.5,-4.5L618.25,454.459l2.812,2.803l5.062,-5.053L627.812,453.896z" display="none"></path><path id="kity_path_220" fill="url(#kity_linearGradient_17)" stroke="none" d="M622,446C616.477,446,612,450.477,612,456c0,5.523,4.477,10,10,10s10,-4.477,10,-10C632,450.477,627.523,446,622,446zM622,464c-4.418,0,-8,-3.582,-8,-8s3.582,-8,8,-8s8,3.582,8,8S626.418,464,622,464z"></path></g><g id="kity_g_232" display="none"><g id="kity_g_233"><path id="kity_path_234" fill="rgb(236, 255, 179)" stroke="none" d="M811.5,444.5h28v20h-28z"></path><text id="kity_text_235" text-rendering="geometricPrecision" font-size="12" dy="4" x="819.5" fill="rgb(57, 77, 0)" y="454.5">✔️</text></g></g></g><g id="minder_node18"><path id="kity_path_281" fill="rgba(0, 0, 0, .25)" stroke="none" d="M755,396.5h0a120,120,0,0,1,120,120v0a120,120,0,0,1,-120,120h0a120,120,0,0,1,-120,-120v0a120,120,0,0,1,120,-120z" display="none"></path><g id="node_expander17" style="cursor: pointer;" display="none"><path id="kity_path_180" fill="white" stroke="gray" d="M626.5,511.5A6,6,0,1,1,614.5,511.5A6,6,0,1,1,626.5,511.5"></path><path id="kity_path_181" fill="none" stroke="gray"></path></g><path id="node_outline18" fill="none" stroke="none" d="M631.5,496.5h224a5,5,0,0,1,5,5v20a5,5,0,0,1,-5,5h-224a5,5,0,0,1,-5,-5v-20a5,5,0,0,1,5,-5z" stroke-width="3"></path><g id="node_text18" fill="black"><text id="kity_text_177" text-rendering="inherit" font-size="12" dy=".8em" y="505.5" x="636.5">iframeElement.contentWindow</text></g><g id="node_priority1" display="none"><path id="kity_path_184" fill="#515151" stroke="none" d="M612,515c0,3.866,3.134,7,7,7h6c3.866,0,7,-3.134,7,-7V509H612V515z"></path><path id="kity_path_185" fill="#A3A3A3" stroke="none" d="M632,512c0,3.866,-3.134,7,-7,7H619c-3.866,0,-7,-3.134,-7,-7V509c0,-3.866,3.134,-7,7,-7h6c3.866,0,7,3.134,7,7V512z" opacity="0.8"></path><text id="kity_text_186" text-rendering="geometricPrecision" x="621" y="511.5" text-anchor="middle" font-style="italic" font-size="12" fill="white" dy="4">9</text></g><g id="node_progress1" display="none"><path id="kity_path_193" fill="#FFED83" stroke="none" d="M631,512A9,9,0,1,1,613,512A9,9,0,1,1,631,512"></path><path id="kity_path_194" fill="#43BC00" stroke="none" d="M622,512"></path><path id="kity_path_195" fill="#8E8E8E" stroke="none" d="M622,505c4.418,0,8,3.582,8,8h1c0,-5.523,-3.477,-10,-9,-10S613,507.477,613,513h1C614,508.582,617.582,505,622,505z"></path><path id="kity_path_197" fill="#EEE" stroke="none" d="M627.812,509.896l-6.75,6.75l-4.5,-4.5L618.25,510.459l2.812,2.803l5.062,-5.053L627.812,509.896z" display="none"></path><path id="kity_path_196" fill="url(#kity_linearGradient_17)" stroke="none" d="M622,502C616.477,502,612,506.477,612,512c0,5.523,4.477,10,10,10s10,-4.477,10,-10C632,506.477,627.523,502,622,502zM622,520c-4.418,0,-8,-3.582,-8,-8s3.582,-8,8,-8s8,3.582,8,8S626.418,520,622,520z"></path></g><g id="kity_g_204"><g id="kity_g_205"><path id="kity_path_206" fill="rgb(236, 255, 179)" stroke="none" d="M822.5,500.5h28v20h-28z"></path><text id="kity_text_207" text-rendering="geometricPrecision" font-size="12" dy="4" x="830.5" fill="rgb(57, 77, 0)" y="510.5">✔️</text></g></g></g><g id="minder_node20"><path id="kity_path_274" fill="rgba(0, 0, 0, .25)" stroke="none" d="M716,109h0a84,84,0,0,1,84,84v0a84,84,0,0,1,-84,84h0a84,84,0,0,1,-84,-84v0a84,84,0,0,1,84,-84z" display="none"></path><g id="node_expander19" style="cursor: pointer;" display="none"><path id="kity_path_250" fill="white" stroke="gray" d="M623.5,187.5A6,6,0,1,1,611.5,187.5A6,6,0,1,1,623.5,187.5"></path><path id="kity_path_251" fill="none" stroke="gray"></path></g><path id="node_outline20" fill="none" stroke="none" d="M628.5,176.5h155a5,5,0,0,1,5,5v12a5,5,0,0,1,-5,5h-155a5,5,0,0,1,-5,-5v-12a5,5,0,0,1,5,-5z" stroke-width="3"></path><g id="node_text20" fill="black"><text id="kity_text_247" text-rendering="inherit" font-size="12" dy=".8em" y="181.5" x="633.5">window.frames[iframeId]</text></g></g><g id="minder_node21"><path id="kity_path_269" fill="rgba(0, 0, 0, .25)" stroke="none" d="M246.5,638.5h94a5,5,0,0,1,5,5v18a5,5,0,0,1,-5,5h-94a5,5,0,0,1,-5,-5v-18a5,5,0,0,1,5,-5z" display="none"></path><g id="node_expander20" style="cursor: pointer;"><path id="kity_path_266" fill="white" stroke="gray" d="M236.5,647.5A6,6,0,1,1,224.5,647.5A6,6,0,1,1,236.5,647.5"></path><path id="kity_path_267" fill="none" stroke="gray" d="M226,647.5L235,647.5"></path></g><path id="node_outline21" fill="rgb(238, 243, 246)" stroke="rgb(115, 161, 191)" d="M240.5,634.5h289a3,3,0,0,1,3,3v20a3,3,0,0,1,-3,3h-289a3,3,0,0,1,-3,-3v-20a3,3,0,0,1,3,-3z" stroke-width="1"></path><g id="node_text21" fill="black"><text id="kity_text_263" text-rendering="inherit" font-size="14" dy=".8em" y="640.5" x="257.5">父页面中获取 iframe 的 document 对象</text></g></g><g id="minder_node23"><g id="node_expander22" style="cursor: pointer;"><path id="kity_path_297" fill="white" stroke="gray" d="M572.5,577.5A6,6,0,1,1,560.5,577.5A6,6,0,1,1,572.5,577.5"></path><path id="kity_path_298" fill="none" stroke="gray" d="M562,577.5L571,577.5"></path></g><path id="node_outline23" fill="none" stroke="none" d="M577.5,566.5h38a5,5,0,0,1,5,5v12a5,5,0,0,1,-5,5h-38a5,5,0,0,1,-5,-5v-12a5,5,0,0,1,5,-5z" stroke-width="3"></path><g id="node_text23" fill="black"><text id="kity_text_294" text-rendering="inherit" font-size="12" dy=".8em" y="571.5" x="582.5">IE6/7</text></g></g><g id="minder_node24"><g id="node_expander23" style="cursor: pointer;" display="none"><path id="kity_path_305" fill="white" stroke="gray" d="M660.5,577.5A6,6,0,1,1,648.5,577.5A6,6,0,1,1,660.5,577.5"></path><path id="kity_path_306" fill="none" stroke="gray"></path></g><path id="node_outline24" fill="none" stroke="none" d="M665.5,566.5h220a5,5,0,0,1,5,5v12a5,5,0,0,1,-5,5h-220a5,5,0,0,1,-5,-5v-12a5,5,0,0,1,5,-5z" stroke-width="3"></path><g id="node_text24" fill="black"><text id="kity_text_302" text-rendering="inherit" font-size="12" dy=".8em" y="571.5" x="670.5">window.frames[iframeId].document</text></g></g><g id="minder_node25"><g id="node_expander24" style="cursor: pointer;"><path id="kity_path_313" fill="white" stroke="gray" d="M572.5,629.5A6,6,0,1,1,560.5,629.5A6,6,0,1,1,572.5,629.5"></path><path id="kity_path_314" fill="none" stroke="gray" d="M562,629.5L571,629.5"></path></g><path id="node_outline25" fill="none" stroke="none" d="M577.5,618.5h22a5,5,0,0,1,5,5v12a5,5,0,0,1,-5,5h-22a5,5,0,0,1,-5,-5v-12a5,5,0,0,1,5,-5z" stroke-width="3"></path><g id="node_text25" fill="black"><text id="kity_text_310" text-rendering="inherit" font-size="12" dy=".8em" y="623.5" x="582.5">FF</text></g></g><g id="minder_node26"><g id="node_expander25" style="cursor: pointer;" display="none"><path id="kity_path_321" fill="white" stroke="gray" d="M644.5,629.5A6,6,0,1,1,632.5,629.5A6,6,0,1,1,644.5,629.5"></path><path id="kity_path_322" fill="none" stroke="gray"></path></g><path id="node_outline26" fill="none" stroke="none" d="M649.5,618.5h206a5,5,0,0,1,5,5v12a5,5,0,0,1,-5,5h-206a5,5,0,0,1,-5,-5v-12a5,5,0,0,1,5,-5z" stroke-width="3"></path><g id="node_text26" fill="black"><text id="kity_text_318" text-rendering="inherit" font-size="12" dy=".8em" y="623.5" x="654.5">iframeElement.contentDocument</text></g></g><g id="minder_node28"><g id="node_expander27" style="cursor: pointer;" display="none"><path id="kity_path_337" fill="white" stroke="gray" d="M572.5,699.5A6,6,0,1,1,560.5,699.5A6,6,0,1,1,572.5,699.5"></path><path id="kity_path_338" fill="none" stroke="gray"></path></g><path id="node_outline28" fill="none" stroke="none" d="M577.5,670.5h506a5,5,0,0,1,5,5v48a5,5,0,0,1,-5,5h-506a5,5,0,0,1,-5,-5v-48a5,5,0,0,1,5,-5z" stroke-width="3"></path><g id="node_text28" fill="black"><text id="kity_text_334" text-rendering="inherit" font-size="12" dy=".8em" y="675.5" x="582.5">iframeElement.contentWindow.document</text><text id="kity_text_339" text-rendering="inherit" font-size="12" dy=".8em" y="693.5" x="582.5"></text><text id="kity_text_340" text-rendering="inherit" font-size="12" dy=".8em" y="711.5" x="582.5">return iframeElement.contentDocument || window.frames[iframeId].document;</text></g><g id="kity_g_375"><g id="kity_g_376"><path id="kity_path_377" fill="rgb(236, 255, 179)" stroke="none" d="M1050.5,688.5h28v20h-28z"></path><text id="kity_text_378" text-rendering="geometricPrecision" font-size="12" dy="4" x="1058.5" fill="rgb(57, 77, 0)" y="698.5">✔️</text></g></g></g><g id="minder_node29"><g id="node_expander28" style="cursor: pointer;"><path id="kity_path_349" fill="white" stroke="gray" d="M236.5,831.5A6,6,0,1,1,224.5,831.5A6,6,0,1,1,236.5,831.5"></path><path id="kity_path_350" fill="none" stroke="gray" d="M226,831.5L235,831.5"></path></g><path id="node_outline29" fill="rgb(238, 243, 246)" stroke="rgb(115, 161, 191)" d="M240.5,818.5h281a3,3,0,0,1,3,3v20a3,3,0,0,1,-3,3h-281a3,3,0,0,1,-3,-3v-20a3,3,0,0,1,3,-3z" stroke-width="1"></path><g id="node_text29" fill="black"><text id="kity_text_346" text-rendering="inherit" font-size="14" dy=".8em" y="824.5" x="257.5">iframe 页面获取父页面的 window 对象</text></g></g><g id="minder_node30"><g id="node_expander29" style="cursor: pointer;" display="none"><path id="kity_path_357" fill="white" stroke="gray" d="M564.5,779.5A6,6,0,1,1,552.5,779.5A6,6,0,1,1,564.5,779.5"></path><path id="kity_path_358" fill="none" stroke="gray"></path></g><path id="node_outline30" fill="none" stroke="none" d="M569.5,768.5h173a5,5,0,0,1,5,5v12a5,5,0,0,1,-5,5h-173a5,5,0,0,1,-5,-5v-12a5,5,0,0,1,5,-5z" stroke-width="3"></path><g id="node_text30" fill="black"><text id="kity_text_354" text-rendering="inherit" font-size="12" dy=".8em" y="773.5" x="574.5">parent：父页面 window 对象</text></g></g><g id="minder_node31"><g id="node_expander30" style="cursor: pointer;" display="none"><path id="kity_path_365" fill="white" stroke="gray" d="M564.5,831.5A6,6,0,1,1,552.5,831.5A6,6,0,1,1,564.5,831.5"></path><path id="kity_path_366" fill="none" stroke="gray"></path></g><path id="node_outline31" fill="none" stroke="none" d="M569.5,820.5h166a5,5,0,0,1,5,5v12a5,5,0,0,1,-5,5h-166a5,5,0,0,1,-5,-5v-12a5,5,0,0,1,5,-5z" stroke-width="3"></path><g id="node_text31" fill="black"><text id="kity_text_362" text-rendering="inherit" font-size="12" dy=".8em" y="825.5" x="574.5">top：顶层页面 window 对象</text></g></g><g id="minder_node32"><g id="node_expander31" style="cursor: pointer;" display="none"><path id="kity_path_373" fill="white" stroke="gray" d="M564.5,883.5A6,6,0,1,1,552.5,883.5A6,6,0,1,1,564.5,883.5"></path><path id="kity_path_374" fill="none" stroke="gray"></path></g><path id="node_outline32" fill="none" stroke="none" d="M569.5,872.5h200a5,5,0,0,1,5,5v12a5,5,0,0,1,-5,5h-200a5,5,0,0,1,-5,-5v-12a5,5,0,0,1,5,-5z" stroke-width="3"></path><g id="node_text32" fill="black"><text id="kity_text_370" text-rendering="inherit" font-size="12" dy=".8em" y="877.5" x="574.5">self：指向当前页面的 window 对象</text></g></g></g></g></svg>